<?xml version="1.0" encoding="utf-8"?>
<!-- Generator: Adobe Illustrator 27.2.0, SVG Export Plug-In . SVG Version: 6.00 Build 0)  -->
<svg version="1.1" id="Layer_1" xmlns="http://www.w3.org/2000/svg" xmlns:xlink="http://www.w3.org/1999/xlink" x="0px" y="0px"
	 viewBox="0 0 697.23 1152" style="enable-background:new 0 0 697.23 1152;" xml:space="preserve">
<style type="text/css">
	.st0{fill:#E20626;}
</style>
<g id="Icon-flame-red_00000030458782352045423860000004844726935671260565_">
	<g>
		<g>
			<path class="st0" d="M219.42,0c14.4,29.95,31.87,73.91,31.87,127.08c0,205.41-221.53,261.27-221.53,448.25
				c0,92.53,67.19,195.81,174.88,195.81c96.94,0,150.89-59.89,150.89-146.86c0-71.8-33.98-127.47-33.98-176.99
				c0-76.02,64.89-123.63,64.89-200.03C386.62,127.85,270.1,31.67,219.42,0z"/>
		</g>
		<g>
			<path class="st0" d="M697.23,798.97c0,132.46-100.78,189.86-175.65,189.86c-62.97,0-142.82-40.12-142.82-150.69
				c0-91.18,56.44-94.06,56.44-195.23c0-56.05-39.93-121.9-39.93-182.56c0-79.86,82.35-150.89,125.55-171.62
				c-16.51,17.85-32.06,65.85-32.06,91.95C488.56,528.68,697.23,610.84,697.23,798.97z"/>
		</g>
		<g>
			<path class="st0" d="M396.99,1031.06c-118.06-64.12-84.47-175.84-100.21-188.9c-15.74-13.25-71.99,26.11-172.2-8.06
				C42.81,806.27,13.44,729.09,8.45,729.09c-5.76,0-8.45,42.42-8.45,66.61C0,980.76,144.94,1152,350.15,1152
				c163.36,0,268.95-117.29,263.19-122.28C606.62,1024.15,490.48,1081.74,396.99,1031.06z"/>
		</g>
	</g>
</g>
</svg>
